<svg width="18" height="18" viewBox="0 0 18 18" fill="none" xmlns="http://www.w3.org/2000/svg">
<path d="M15.25 0.25H2.75C2.08696 0.25 1.45107 0.513392 0.982233 0.982233C0.513392 1.45107 0.25 2.08696 0.25 2.75V15.25C0.25 15.913 0.513392 16.5489 0.982233 17.0178C1.45107 17.4866 2.08696 17.75 2.75 17.75H15.25C15.913 17.75 16.5489 17.4866 17.0178 17.0178C17.4866 16.5489 17.75 15.913 17.75 15.25V2.75C17.75 2.08696 17.4866 1.45107 17.0178 0.982233C16.5489 0.513392 15.913 0.25 15.25 0.25V0.25ZM14 10.25H4V7.75H14V10.25Z" fill="#858796"/>
</svg>
