<svg width="10" height="10" viewBox="0 0 10 10" fill="none" xmlns="http://www.w3.org/2000/svg">
<path d="M0.6875 5.75H4.25V9.3125C4.25 9.41562 4.33437 9.5 4.4375 9.5H5.5625C5.66563 9.5 5.75 9.41562 5.75 9.3125V5.75H9.3125C9.41562 5.75 9.5 5.66563 9.5 5.5625V4.4375C9.5 4.33437 9.41562 4.25 9.3125 4.25H5.75V0.6875C5.75 0.584375 5.66563 0.5 5.5625 0.5H4.4375C4.33437 0.5 4.25 0.584375 4.25 0.6875V4.25H0.6875C0.584375 4.25 0.5 4.33437 0.5 4.4375V5.5625C0.5 5.66563 0.584375 5.75 0.6875 5.75Z" fill="#312783"/>
</svg>
